# xmcd
#
# Track frame offsets: 
#        150
#        17991
#        37614
#        62462
#        82860
#        111057
#        130765
#        144298
#        174634
#        189525
#        218812
#        239409
#        270953
#        289330
#        320692
#        336563
#
# Disc length: 4778 seconds
#
# Revision: 1
# Processed by: cddbd v1.5.2PL0 Copyright (c) Steve Scherf et al.
# Submitted via: ExactAudioCopy v1.3
#
DISCID=e112a810
DTITLE=Various Artist - Akella Presents - vol.87 - Black Pure Blues  
DTITLE=CD2
DYEAR=2016
DGENRE=Blues
TTITLE0=Quintus McCormick - You Just Using Me
TTITLE1=Roosevelt Dean - Whiskey and Gin
TTITLE2=Big T and the Family Band - I'm Looking For A Crossroads
TTITLE3=Zac Harmon - Raising Hell
TTITLE4=Jimmy Burns - Shake For Me
TTITLE5=Big George Jackson - Hard Hearted Woman
TTITLE6=Lurrie Bell - Sit Down Baby
TTITLE7=Lil' Ed and The Blues Imperials - I'll Cry Tomorrow
TTITLE8=Kenny Neal - Ain't Gon' Let the Blues Die
TTITLE9=Bernard Allison - Young Boy's Blues
TTITLE10=Chick Willis - Don't Know What You Got
TTITLE11=Lucky Peterson - I'm Still Here
TTITLE12=Jackie Payne - Take the Keys
TTITLE13=Albert Collins - Lights Are On But Nobody's Home
TTITLE14=Andy T - Tall Drink of Water
TTITLE15=Papa George Lightfoot - Baby Please Don't Go
EXTD=
EXTT0=
EXTT1=
EXTT2=
EXTT3=
EXTT4=
EXTT5=
EXTT6=
EXTT7=
EXTT8=
EXTT9=
EXTT10=
EXTT11=
EXTT12=
EXTT13=
EXTT14=
EXTT15=
PLAYORDER=
